# xmcd
#
# Track frame offsets:
#	150
#	25399
#	48204
#	73784
#	97347
#	122327
#	142939
#	167166
#	194313
#	218126
#	242076
#	270216
#
# Disc length: 3918 seconds
#
# Revision: 0
# Processed by: cddbd v1.5.2PL0 Copyright (c) Steve Scherf et al.
# Submitted via: EasyCDDAExtractor 16.0.6.1
#
DISCID=a70f4c0c
DTITLE=Vários Artistas - SAMBAS DE ENREDO GRUPO DE ACESSO II - CARNAVAL SP 202
DTITLE=0
DYEAR=1900
DGENRE=
TTITLE0=G.R.C.S.E.S. UNIDOS DO PERUCHE - UBUNTU - POR UM MUNDO NOVO
TTITLE1=G.R.C.S.E.S. MORRO DA CASA VERDE - O GRANDIOSO DESFILE DE REIS
TTITLE2=G.R.C.E.S. DOM BOSCO DE ITAQUERA - O IMPORTANTE É QUE EMOÇÕES EU VIVI
TTITLE3=S.R.C.E.S. PRIMEIRA DA CIDADE LÍDER - O CANTO DO ENGENHO VELHO
TTITLE4=S.E.S. IMPERADOR DO IPIRANGA - MAKEDA - A SAGA DA RAINHADE SABÁ E O TR
TTITLE4=ONO DOS DOIS MUNDOS
TTITLE5=G.R.C.E.S. CAMISA 12 - O PÃO NOSSO DE CADA DIA NOS DAI HOJE
TTITLE6=G.R.C.S.E.S. UNIDOS DE SANTA BÁRBARA - OYÁ
TTITLE7=G.R.C.A.B.E.S. TRADIÇÃO ALBERTINENSE - TODA FAMÍLIA TEM TRADIÇÃO
TTITLE8=G.R.C.E.S. TORCIDA JOVEM - PREPARE O SEU CORAÇÃO PRAS COISAS QUE EU VO
TTITLE8=U CONTAR...
TTITLE9=G.R.E.S. AMIZADE ZONA LESTE - CINCO DIVAS EXTRAORDINÁRIAS NO ALTAR DO 
TTITLE9=SAMBA DO AMIZADE
TTITLE10=G.R.C.E.S. UIRAPURU DA MOOCA - DEUSES, LENDAS, CONQUISTAS E RIQUEZAS.
TTITLE10=O MAR... É PRECISO PRESERVAR PARA A VIDA PROSPERAR
TTITLE11=G.R.C.E.S. FLOR DE VILA DALILA - NO TOQUE DO TAMBOR, CRENÇA QUE O TEM
TTITLE11=PO NÃO APAGA
EXTD=
EXTT0=
EXTT1=
EXTT2=
EXTT3=
EXTT4=
EXTT5=
EXTT6=
EXTT7=
EXTT8=
EXTT9=
EXTT10=
EXTT11=
PLAYORDER=
